<svg width="400" height="400" viewBox="0 0 400 400" fill="none" xmlns="http://www.w3.org/2000/svg">
<path fill-rule="evenodd" clip-rule="evenodd" d="M53.0005 179.5C44.1631 134.456 58.7902 105.48 85.5005 61C84.9167 91.4918 87.8231 107.702 103 129C102.853 129.559 119.5 103.5 133.5 90C147.5 76.5 147.021 62.9415 149.501 38.5C149.501 38.5 172.501 63 172.501 93C179.691 85.8658 219.5 73.5 233 70.5C246.5 67.5 269 53.5 280.5 27C299.5 58 289 77 280.5 94.5C287.124 91.1446 311.011 98.0545 317 97.5C322.99 96.9455 335.79 90.901 344 85.5C352.5 96 353.137 121.694 347.5 144.5C357.387 135.941 380 126.5 380 126.5C371.88 144.204 375.823 151.177 378.5 172C381.178 192.823 366 219.5 366 219.5C366 219.5 379.29 210.404 384.5 200.5C387.5 234 354.127 313.845 282 367C220.8 408.916 166.288 392.733 130.5 372C95.3493 349.184 39.9072 305.131 16.0005 234C19.3627 232.73 31.8239 232.199 38.0005 236.5C26.636 206.827 22.6914 181.899 28.0005 149C36.4542 162.789 42.1196 169.145 53.0005 179.5ZM162.001 206C137.501 214.5 127.5 220.5 113.5 235.5C108 279.5 110 304 130.5 342.5C167.5 374.5 233 383.5 279 338.5C297.5 298 301.5 277 296 234L285.5 222C283.867 237.104 281.5 244.5 278 255C266.87 230.151 256.694 221.201 236.001 213C242.242 222.925 247.001 227 258.001 237.5C211.001 238 193.001 227.5 162.001 206Z" fill="black"/>
<path fill-rule="evenodd" clip-rule="evenodd" d="M160.168 246.596C169.78 245.584 178.392 252.556 179.404 262.168L183.404 300.168C184.416 309.78 177.444 318.392 167.832 319.404C158.221 320.416 149.608 313.444 148.597 303.832L144.597 265.832C143.585 256.22 150.557 247.608 160.168 246.596Z" fill="black"/>
<path fill-rule="evenodd" clip-rule="evenodd" d="M250.028 246.53C259.677 247.098 267.038 255.379 266.47 265.028L264.47 299.028C263.903 308.676 255.621 316.037 245.973 315.47C236.325 314.902 228.963 306.621 229.531 296.972L231.531 262.972C232.098 253.324 240.38 245.963 250.028 246.53Z" fill="black"/>
</svg>
